<svg width="267" height="40" viewBox="0 0 267 40" fill="none" xmlns="http://www.w3.org/2000/svg">
<path d="M47.86 21.5C47.86 20.3667 48.0867 19.38 48.54 18.54C48.9933 17.6867 49.62 17.0267 50.42 16.56C51.2333 16.0933 52.16 15.86 53.2 15.86C54.5467 15.86 55.6533 16.1867 56.52 16.84C57.4 17.4933 57.98 18.4 58.26 19.56H56.3C56.1133 18.8933 55.7467 18.3667 55.2 17.98C54.6667 17.5933 54 17.4 53.2 17.4C52.16 17.4 51.32 17.76 50.68 18.48C50.04 19.1867 49.72 20.1933 49.72 21.5C49.72 22.82 50.04 23.84 50.68 24.56C51.32 25.28 52.16 25.64 53.2 25.64C54 25.64 54.6667 25.4533 55.2 25.08C55.7333 24.7067 56.1 24.1733 56.3 23.48H58.26C57.9667 24.6 57.38 25.5 56.5 26.18C55.62 26.8467 54.52 27.18 53.2 27.18C52.16 27.18 51.2333 26.9467 50.42 26.48C49.62 26.0133 48.9933 25.3533 48.54 24.5C48.0867 23.6467 47.86 22.6467 47.86 21.5Z" fill="white"/>
<path d="M65.4684 27.18C64.4418 27.18 63.5084 26.9467 62.6684 26.48C61.8418 26.0133 61.1884 25.3533 60.7084 24.5C60.2418 23.6333 60.0084 22.6333 60.0084 21.5C60.0084 20.38 60.2484 19.3933 60.7284 18.54C61.2218 17.6733 61.8884 17.0133 62.7284 16.56C63.5684 16.0933 64.5084 15.86 65.5484 15.86C66.5884 15.86 67.5284 16.0933 68.3684 16.56C69.2084 17.0133 69.8684 17.6667 70.3484 18.52C70.8418 19.3733 71.0884 20.3667 71.0884 21.5C71.0884 22.6333 70.8351 23.6333 70.3284 24.5C69.8351 25.3533 69.1618 26.0133 68.3084 26.48C67.4551 26.9467 66.5084 27.18 65.4684 27.18ZM65.4684 25.58C66.1218 25.58 66.7351 25.4267 67.3084 25.12C67.8818 24.8133 68.3418 24.3533 68.6884 23.74C69.0484 23.1267 69.2284 22.38 69.2284 21.5C69.2284 20.62 69.0551 19.8733 68.7084 19.26C68.3618 18.6467 67.9084 18.1933 67.3484 17.9C66.7884 17.5933 66.1818 17.44 65.5284 17.44C64.8618 17.44 64.2484 17.5933 63.6884 17.9C63.1418 18.1933 62.7018 18.6467 62.3684 19.26C62.0351 19.8733 61.8684 20.62 61.8684 21.5C61.8684 22.3933 62.0284 23.1467 62.3484 23.76C62.6818 24.3733 63.1218 24.8333 63.6684 25.14C64.2151 25.4333 64.8151 25.58 65.4684 25.58Z" fill="white"/>
<path d="M88.0814 16.04L84.6614 27H82.7814L80.1414 18.3L77.5014 27H75.6214L72.1814 16.04H74.0414L76.5614 25.24L79.2814 16.04H81.1414L83.8014 25.26L86.2814 16.04H88.0814Z" fill="white"/>
<path d="M94.3477 17.54H92.0477V27H90.2277V17.54H88.8077V16.04H90.2277V15.26C90.2277 14.0333 90.541 13.14 91.1677 12.58C91.8077 12.0067 92.8277 11.72 94.2277 11.72V13.24C93.4277 13.24 92.861 13.4 92.5277 13.72C92.2077 14.0267 92.0477 14.54 92.0477 15.26V16.04H94.3477V17.54Z" fill="white"/>
<path d="M106.47 21.1C106.47 21.4467 106.45 21.8133 106.41 22.2H97.6497C97.7164 23.28 98.083 24.1267 98.7497 24.74C99.4297 25.34 100.25 25.64 101.21 25.64C101.996 25.64 102.65 25.46 103.17 25.1C103.703 24.7267 104.076 24.2333 104.29 23.62H106.25C105.956 24.6733 105.37 25.5333 104.49 26.2C103.61 26.8533 102.516 27.18 101.21 27.18C100.17 27.18 99.2364 26.9467 98.4097 26.48C97.5964 26.0133 96.9564 25.3533 96.4897 24.5C96.023 23.6333 95.7897 22.6333 95.7897 21.5C95.7897 20.3667 96.0164 19.3733 96.4697 18.52C96.923 17.6667 97.5564 17.0133 98.3697 16.56C99.1964 16.0933 100.143 15.86 101.21 15.86C102.25 15.86 103.17 16.0867 103.97 16.54C104.77 16.9933 105.383 17.62 105.81 18.42C106.25 19.2067 106.47 20.1 106.47 21.1ZM104.59 20.72C104.59 20.0267 104.436 19.4333 104.13 18.94C103.823 18.4333 103.403 18.0533 102.87 17.8C102.35 17.5333 101.77 17.4 101.13 17.4C100.21 17.4 99.423 17.6933 98.7697 18.28C98.1297 18.8667 97.763 19.68 97.6697 20.72H104.59Z" fill="white"/>
<path d="M118.872 21.1C118.872 21.4467 118.852 21.8133 118.812 22.2H110.052C110.119 23.28 110.485 24.1267 111.152 24.74C111.832 25.34 112.652 25.64 113.612 25.64C114.399 25.64 115.052 25.46 115.572 25.1C116.105 24.7267 116.479 24.2333 116.692 23.62H118.652C118.359 24.6733 117.772 25.5333 116.892 26.2C116.012 26.8533 114.919 27.18 113.612 27.18C112.572 27.18 111.639 26.9467 110.812 26.48C109.999 26.0133 109.359 25.3533 108.892 24.5C108.425 23.6333 108.192 22.6333 108.192 21.5C108.192 20.3667 108.419 19.3733 108.872 18.52C109.325 17.6667 109.959 17.0133 110.772 16.56C111.599 16.0933 112.545 15.86 113.612 15.86C114.652 15.86 115.572 16.0867 116.372 16.54C117.172 16.9933 117.785 17.62 118.212 18.42C118.652 19.2067 118.872 20.1 118.872 21.1ZM116.992 20.72C116.992 20.0267 116.839 19.4333 116.532 18.94C116.225 18.4333 115.805 18.0533 115.272 17.8C114.752 17.5333 114.172 17.4 113.532 17.4C112.612 17.4 111.825 17.6933 111.172 18.28C110.532 18.8667 110.165 19.68 110.072 20.72H116.992Z" fill="white"/>
<path d="M131.274 14.18C132.754 14.18 134.041 14.46 135.134 15.02C136.228 15.58 137.068 16.3667 137.654 17.38C138.241 18.38 138.534 19.54 138.534 20.86C138.534 21.9133 138.361 22.9267 138.014 23.9C137.668 24.86 137.161 25.64 136.494 26.24C135.841 26.84 135.074 27.14 134.194 27.14C133.528 27.14 133.014 26.9733 132.654 26.64C132.294 26.3067 132.088 25.8533 132.034 25.28C131.621 25.8533 131.094 26.3067 130.454 26.64C129.828 26.9733 129.161 27.14 128.454 27.14C127.441 27.14 126.641 26.8333 126.054 26.22C125.481 25.5933 125.194 24.7533 125.194 23.7C125.194 22.7 125.401 21.7667 125.814 20.9C126.241 20.0333 126.828 19.34 127.574 18.82C128.321 18.2867 129.168 18.02 130.114 18.02C131.381 18.02 132.234 18.5 132.674 19.46L132.894 18.22H134.474L133.474 24C133.434 24.2533 133.414 24.4867 133.414 24.7C133.414 25.5 133.768 25.9 134.474 25.9C135.008 25.9 135.468 25.6467 135.854 25.14C136.254 24.6333 136.554 24 136.754 23.24C136.954 22.4667 137.054 21.7067 137.054 20.96C137.054 19.2133 136.528 17.86 135.474 16.9C134.434 15.94 132.961 15.46 131.054 15.46C129.468 15.46 128.034 15.8467 126.754 16.62C125.488 17.38 124.494 18.4267 123.774 19.76C123.054 21.0933 122.694 22.5667 122.694 24.18C122.681 25.94 123.208 27.2933 124.274 28.24C125.341 29.2 126.821 29.68 128.714 29.68C129.968 29.68 131.074 29.4533 132.034 29L132.274 30.24C131.088 30.7333 129.781 30.98 128.354 30.98C126.928 30.98 125.668 30.7067 124.574 30.16C123.494 29.6267 122.654 28.8533 122.054 27.84C121.468 26.84 121.174 25.6733 121.174 24.34C121.174 22.46 121.608 20.7467 122.474 19.2C123.341 17.64 124.541 16.4133 126.074 15.52C127.621 14.6267 129.354 14.18 131.274 14.18ZM128.994 25.72C129.594 25.72 130.148 25.5467 130.654 25.2C131.161 24.84 131.561 24.36 131.854 23.76C132.148 23.1467 132.294 22.48 132.294 21.76C132.294 21.0667 132.101 20.5067 131.714 20.08C131.341 19.64 130.808 19.42 130.114 19.42C129.474 19.42 128.908 19.6133 128.414 20C127.934 20.3733 127.561 20.8733 127.294 21.5C127.028 22.1133 126.894 22.7533 126.894 23.42C126.894 24.1267 127.074 24.6867 127.434 25.1C127.794 25.5133 128.314 25.72 128.994 25.72Z" fill="white"/>
<path d="M140.848 21.5C140.848 20.3667 141.075 19.38 141.528 18.54C141.982 17.6867 142.608 17.0267 143.408 16.56C144.222 16.0933 145.148 15.86 146.188 15.86C147.535 15.86 148.642 16.1867 149.508 16.84C150.388 17.4933 150.968 18.4 151.248 19.56H149.288C149.102 18.8933 148.735 18.3667 148.188 17.98C147.655 17.5933 146.988 17.4 146.188 17.4C145.148 17.4 144.308 17.76 143.668 18.48C143.028 19.1867 142.708 20.1933 142.708 21.5C142.708 22.82 143.028 23.84 143.668 24.56C144.308 25.28 145.148 25.64 146.188 25.64C146.988 25.64 147.655 25.4533 148.188 25.08C148.722 24.7067 149.088 24.1733 149.288 23.48H151.248C150.955 24.6 150.368 25.5 149.488 26.18C148.608 26.8467 147.508 27.18 146.188 27.18C145.148 27.18 144.222 26.9467 143.408 26.48C142.608 26.0133 141.982 25.3533 141.528 24.5C141.075 23.6467 140.848 22.6467 140.848 21.5Z" fill="white"/>
<path d="M158.457 27.18C157.43 27.18 156.497 26.9467 155.657 26.48C154.83 26.0133 154.177 25.3533 153.697 24.5C153.23 23.6333 152.997 22.6333 152.997 21.5C152.997 20.38 153.237 19.3933 153.717 18.54C154.21 17.6733 154.877 17.0133 155.717 16.56C156.557 16.0933 157.497 15.86 158.537 15.86C159.577 15.86 160.517 16.0933 161.357 16.56C162.197 17.0133 162.857 17.6667 163.337 18.52C163.83 19.3733 164.077 20.3667 164.077 21.5C164.077 22.6333 163.823 23.6333 163.317 24.5C162.823 25.3533 162.15 26.0133 161.297 26.48C160.443 26.9467 159.497 27.18 158.457 27.18ZM158.457 25.58C159.11 25.58 159.723 25.4267 160.297 25.12C160.87 24.8133 161.33 24.3533 161.677 23.74C162.037 23.1267 162.217 22.38 162.217 21.5C162.217 20.62 162.043 19.8733 161.697 19.26C161.35 18.6467 160.897 18.1933 160.337 17.9C159.777 17.5933 159.17 17.44 158.517 17.44C157.85 17.44 157.237 17.5933 156.677 17.9C156.13 18.1933 155.69 18.6467 155.357 19.26C155.023 19.8733 154.857 20.62 154.857 21.5C154.857 22.3933 155.017 23.1467 155.337 23.76C155.67 24.3733 156.11 24.8333 156.657 25.14C157.203 25.4333 157.803 25.58 158.457 25.58Z" fill="white"/>
<path d="M171.81 15.84C173.143 15.84 174.223 16.2467 175.05 17.06C175.876 17.86 176.29 19.02 176.29 20.54V27H174.49V20.8C174.49 19.7067 174.216 18.8733 173.67 18.3C173.123 17.7133 172.376 17.42 171.43 17.42C170.47 17.42 169.703 17.72 169.13 18.32C168.57 18.92 168.29 19.7933 168.29 20.94V27H166.47V16.04H168.29V17.6C168.65 17.04 169.136 16.6067 169.75 16.3C170.376 15.9933 171.063 15.84 171.81 15.84Z" fill="white"/>
<path d="M181.483 17.54V24C181.483 24.5333 181.596 24.9133 181.823 25.14C182.049 25.3533 182.443 25.46 183.003 25.46H184.343V27H182.703C181.689 27 180.929 26.7667 180.423 26.3C179.916 25.8333 179.663 25.0667 179.663 24V17.54H178.243V16.04H179.663V13.28H181.483V16.04H184.343V17.54H181.483Z" fill="white"/>
<path d="M185.868 21.48C185.868 20.36 186.094 19.38 186.548 18.54C187.001 17.6867 187.621 17.0267 188.408 16.56C189.208 16.0933 190.094 15.86 191.068 15.86C192.028 15.86 192.861 16.0667 193.568 16.48C194.274 16.8933 194.801 17.4133 195.148 18.04V16.04H196.988V27H195.148V24.96C194.788 25.6 194.248 26.1333 193.528 26.56C192.821 26.9733 191.994 27.18 191.048 27.18C190.074 27.18 189.194 26.94 188.408 26.46C187.621 25.98 187.001 25.3067 186.548 24.44C186.094 23.5733 185.868 22.5867 185.868 21.48ZM195.148 21.5C195.148 20.6733 194.981 19.9533 194.648 19.34C194.314 18.7267 193.861 18.26 193.288 17.94C192.728 17.6067 192.108 17.44 191.428 17.44C190.748 17.44 190.128 17.6 189.568 17.92C189.008 18.24 188.561 18.7067 188.228 19.32C187.894 19.9333 187.728 20.6533 187.728 21.48C187.728 22.32 187.894 23.0533 188.228 23.68C188.561 24.2933 189.008 24.7667 189.568 25.1C190.128 25.42 190.748 25.58 191.428 25.58C192.108 25.58 192.728 25.42 193.288 25.1C193.861 24.7667 194.314 24.2933 194.648 23.68C194.981 23.0533 195.148 22.3267 195.148 21.5Z" fill="white"/>
<path d="M202.283 17.54V24C202.283 24.5333 202.397 24.9133 202.623 25.14C202.85 25.3533 203.243 25.46 203.803 25.46H205.143V27H203.503C202.49 27 201.73 26.7667 201.223 26.3C200.717 25.8333 200.463 25.0667 200.463 24V17.54H199.043V16.04H200.463V13.28H202.283V16.04H205.143V17.54H202.283Z" fill="white"/>
<path d="M212.129 27.18C211.102 27.18 210.169 26.9467 209.329 26.48C208.502 26.0133 207.849 25.3533 207.369 24.5C206.902 23.6333 206.669 22.6333 206.669 21.5C206.669 20.38 206.909 19.3933 207.389 18.54C207.882 17.6733 208.549 17.0133 209.389 16.56C210.229 16.0933 211.169 15.86 212.209 15.86C213.249 15.86 214.189 16.0933 215.029 16.56C215.869 17.0133 216.529 17.6667 217.009 18.52C217.502 19.3733 217.749 20.3667 217.749 21.5C217.749 22.6333 217.495 23.6333 216.989 24.5C216.495 25.3533 215.822 26.0133 214.969 26.48C214.115 26.9467 213.169 27.18 212.129 27.18ZM212.129 25.58C212.782 25.58 213.395 25.4267 213.969 25.12C214.542 24.8133 215.002 24.3533 215.349 23.74C215.709 23.1267 215.889 22.38 215.889 21.5C215.889 20.62 215.715 19.8733 215.369 19.26C215.022 18.6467 214.569 18.1933 214.009 17.9C213.449 17.5933 212.842 17.44 212.189 17.44C211.522 17.44 210.909 17.5933 210.349 17.9C209.802 18.1933 209.362 18.6467 209.029 19.26C208.695 19.8733 208.529 20.62 208.529 21.5C208.529 22.3933 208.689 23.1467 209.009 23.76C209.342 24.3733 209.782 24.8333 210.329 25.14C210.875 25.4333 211.475 25.58 212.129 25.58Z" fill="white"/>
<path d="M220.722 27.12C220.375 27.12 220.082 27 219.842 26.76C219.602 26.52 219.482 26.2267 219.482 25.88C219.482 25.5333 219.602 25.24 219.842 25C220.082 24.76 220.375 24.64 220.722 24.64C221.055 24.64 221.335 24.76 221.562 25C221.802 25.24 221.922 25.5333 221.922 25.88C221.922 26.2267 221.802 26.52 221.562 26.76C221.335 27 221.055 27.12 220.722 27.12Z" fill="white"/>
<path d="M223.661 21.5C223.661 20.3667 223.887 19.38 224.341 18.54C224.794 17.6867 225.421 17.0267 226.221 16.56C227.034 16.0933 227.961 15.86 229.001 15.86C230.347 15.86 231.454 16.1867 232.321 16.84C233.201 17.4933 233.781 18.4 234.061 19.56H232.101C231.914 18.8933 231.547 18.3667 231.001 17.98C230.467 17.5933 229.801 17.4 229.001 17.4C227.961 17.4 227.121 17.76 226.481 18.48C225.841 19.1867 225.521 20.1933 225.521 21.5C225.521 22.82 225.841 23.84 226.481 24.56C227.121 25.28 227.961 25.64 229.001 25.64C229.801 25.64 230.467 25.4533 231.001 25.08C231.534 24.7067 231.901 24.1733 232.101 23.48H234.061C233.767 24.6 233.181 25.5 232.301 26.18C231.421 26.8467 230.321 27.18 229.001 27.18C227.961 27.18 227.034 26.9467 226.221 26.48C225.421 26.0133 224.794 25.3533 224.341 24.5C223.887 23.6467 223.661 22.6467 223.661 21.5Z" fill="white"/>
<path d="M241.269 27.18C240.243 27.18 239.309 26.9467 238.469 26.48C237.643 26.0133 236.989 25.3533 236.509 24.5C236.043 23.6333 235.809 22.6333 235.809 21.5C235.809 20.38 236.049 19.3933 236.529 18.54C237.023 17.6733 237.689 17.0133 238.529 16.56C239.369 16.0933 240.309 15.86 241.349 15.86C242.389 15.86 243.329 16.0933 244.169 16.56C245.009 17.0133 245.669 17.6667 246.149 18.52C246.643 19.3733 246.889 20.3667 246.889 21.5C246.889 22.6333 246.636 23.6333 246.129 24.5C245.636 25.3533 244.963 26.0133 244.109 26.48C243.256 26.9467 242.309 27.18 241.269 27.18ZM241.269 25.58C241.923 25.58 242.536 25.4267 243.109 25.12C243.683 24.8133 244.143 24.3533 244.489 23.74C244.849 23.1267 245.029 22.38 245.029 21.5C245.029 20.62 244.856 19.8733 244.509 19.26C244.163 18.6467 243.709 18.1933 243.149 17.9C242.589 17.5933 241.983 17.44 241.329 17.44C240.663 17.44 240.049 17.5933 239.489 17.9C238.943 18.1933 238.503 18.6467 238.169 19.26C237.836 19.8733 237.669 20.62 237.669 21.5C237.669 22.3933 237.829 23.1467 238.149 23.76C238.483 24.3733 238.923 24.8333 239.469 25.14C240.016 25.4333 240.616 25.58 241.269 25.58Z" fill="white"/>
<path d="M262.462 15.84C263.316 15.84 264.076 16.02 264.742 16.38C265.409 16.7267 265.936 17.2533 266.322 17.96C266.709 18.6667 266.902 19.5267 266.902 20.54V27H265.102V20.8C265.102 19.7067 264.829 18.8733 264.282 18.3C263.749 17.7133 263.022 17.42 262.102 17.42C261.156 17.42 260.402 17.7267 259.842 18.34C259.282 18.94 259.002 19.8133 259.002 20.96V27H257.202V20.8C257.202 19.7067 256.929 18.8733 256.382 18.3C255.849 17.7133 255.122 17.42 254.202 17.42C253.256 17.42 252.502 17.7267 251.942 18.34C251.382 18.94 251.102 19.8133 251.102 20.96V27H249.282V16.04H251.102V17.62C251.462 17.0467 251.942 16.6067 252.542 16.3C253.156 15.9933 253.829 15.84 254.562 15.84C255.482 15.84 256.296 16.0467 257.002 16.46C257.709 16.8733 258.236 17.48 258.582 18.28C258.889 17.5067 259.396 16.9067 260.102 16.48C260.809 16.0533 261.596 15.84 262.462 15.84Z" fill="white"/>
<path d="M33.3333 6.66667H6.66667C4.83333 6.66667 3.35 8.16667 3.35 10L3.33333 30C3.33333 31.8333 4.83333 33.3333 6.66667 33.3333H33.3333C35.1667 33.3333 36.6667 31.8333 36.6667 30V10C36.6667 8.16667 35.1667 6.66667 33.3333 6.66667ZM33.3333 13.3333L20 21.6667L6.66667 13.3333V10L20 18.3333L33.3333 10V13.3333Z" fill="white"/>
</svg>
