<svg width="286" height="40" viewBox="0 0 286 40" fill="none" xmlns="http://www.w3.org/2000/svg">
<path d="M52.96 26.14C52.04 26.14 51.2133 25.98 50.48 25.66C49.76 25.3267 49.1933 24.8733 48.78 24.3C48.3667 23.7133 48.1533 23.04 48.14 22.28H50.08C50.1467 22.9333 50.4133 23.4867 50.88 23.94C51.36 24.38 52.0533 24.6 52.96 24.6C53.8267 24.6 54.5067 24.3867 55 23.96C55.5067 23.52 55.76 22.96 55.76 22.28C55.76 21.7467 55.6133 21.3133 55.32 20.98C55.0267 20.6467 54.66 20.3933 54.22 20.22C53.78 20.0467 53.1867 19.86 52.44 19.66C51.52 19.42 50.78 19.18 50.22 18.94C49.6733 18.7 49.2 18.3267 48.8 17.82C48.4133 17.3 48.22 16.6067 48.22 15.74C48.22 14.98 48.4133 14.3067 48.8 13.72C49.1867 13.1333 49.7267 12.68 50.42 12.36C51.1267 12.04 51.9333 11.88 52.84 11.88C54.1467 11.88 55.2133 12.2067 56.04 12.86C56.88 13.5133 57.3533 14.38 57.46 15.46H55.46C55.3933 14.9267 55.1133 14.46 54.62 14.06C54.1267 13.6467 53.4733 13.44 52.66 13.44C51.9 13.44 51.28 13.64 50.8 14.04C50.32 14.4267 50.08 14.9733 50.08 15.68C50.08 16.1867 50.22 16.6 50.5 16.92C50.7933 17.24 51.1467 17.4867 51.56 17.66C51.9867 17.82 52.58 18.0067 53.34 18.22C54.26 18.4733 55 18.7267 55.56 18.98C56.12 19.22 56.6 19.6 57 20.12C57.4 20.6267 57.6 21.32 57.6 22.2C57.6 22.88 57.42 23.52 57.06 24.12C56.7 24.72 56.1667 25.2067 55.46 25.58C54.7533 25.9533 53.92 26.14 52.96 26.14Z" fill="white"/>
<path d="M70.2783 20.1C70.2783 20.4467 70.2583 20.8133 70.2183 21.2H61.4583C61.5249 22.28 61.8916 23.1267 62.5583 23.74C63.2383 24.34 64.0583 24.64 65.0183 24.64C65.8049 24.64 66.4583 24.46 66.9783 24.1C67.5116 23.7267 67.8849 23.2333 68.0983 22.62H70.0583C69.7649 23.6733 69.1783 24.5333 68.2983 25.2C67.4183 25.8533 66.3249 26.18 65.0183 26.18C63.9783 26.18 63.0449 25.9467 62.2183 25.48C61.4049 25.0133 60.7649 24.3533 60.2983 23.5C59.8316 22.6333 59.5983 21.6333 59.5983 20.5C59.5983 19.3667 59.8249 18.3733 60.2783 17.52C60.7316 16.6667 61.3649 16.0133 62.1783 15.56C63.0049 15.0933 63.9516 14.86 65.0183 14.86C66.0583 14.86 66.9783 15.0867 67.7783 15.54C68.5783 15.9933 69.1916 16.62 69.6183 17.42C70.0583 18.2067 70.2783 19.1 70.2783 20.1ZM68.3983 19.72C68.3983 19.0267 68.2449 18.4333 67.9383 17.94C67.6316 17.4333 67.2116 17.0533 66.6783 16.8C66.1583 16.5333 65.5783 16.4 64.9383 16.4C64.0183 16.4 63.2316 16.6933 62.5783 17.28C61.9383 17.8667 61.5716 18.68 61.4783 19.72H68.3983Z" fill="white"/>
<path d="M74.9006 16.54V23C74.9006 23.5333 75.014 23.9133 75.2406 24.14C75.4673 24.3533 75.8606 24.46 76.4206 24.46H77.7606V26H76.1206C75.1073 26 74.3473 25.7667 73.8406 25.3C73.334 24.8333 73.0806 24.0667 73.0806 23V16.54H71.6606V15.04H73.0806V12.28H74.9006V15.04H77.7606V16.54H74.9006Z" fill="white"/>
<path d="M84.7458 26.18C83.7191 26.18 82.7858 25.9467 81.9458 25.48C81.1191 25.0133 80.4658 24.3533 79.9858 23.5C79.5191 22.6333 79.2858 21.6333 79.2858 20.5C79.2858 19.38 79.5258 18.3933 80.0058 17.54C80.4991 16.6733 81.1658 16.0133 82.0058 15.56C82.8458 15.0933 83.7858 14.86 84.8258 14.86C85.8658 14.86 86.8058 15.0933 87.6458 15.56C88.4858 16.0133 89.1458 16.6667 89.6258 17.52C90.1191 18.3733 90.3658 19.3667 90.3658 20.5C90.3658 21.6333 90.1124 22.6333 89.6058 23.5C89.1124 24.3533 88.4391 25.0133 87.5858 25.48C86.7325 25.9467 85.7858 26.18 84.7458 26.18ZM84.7458 24.58C85.3991 24.58 86.0125 24.4267 86.5858 24.12C87.1591 23.8133 87.6191 23.3533 87.9658 22.74C88.3258 22.1267 88.5058 21.38 88.5058 20.5C88.5058 19.62 88.3324 18.8733 87.9858 18.26C87.6391 17.6467 87.1858 17.1933 86.6258 16.9C86.0658 16.5933 85.4591 16.44 84.8058 16.44C84.1391 16.44 83.5258 16.5933 82.9658 16.9C82.4191 17.1933 81.9791 17.6467 81.6458 18.26C81.3124 18.8733 81.1458 19.62 81.1458 20.5C81.1458 21.3933 81.3058 22.1467 81.6258 22.76C81.9591 23.3733 82.3991 23.8333 82.9458 24.14C83.4924 24.4333 84.0924 24.58 84.7458 24.58Z" fill="white"/>
<path d="M94.5788 16.82C94.8988 16.1933 95.3521 15.7067 95.9388 15.36C96.5388 15.0133 97.2654 14.84 98.1188 14.84V16.72H97.6387C95.5987 16.72 94.5788 17.8267 94.5788 20.04V26H92.7588V15.04H94.5788V16.82Z" fill="white"/>
<path d="M104.872 19.02C104.872 17.66 105.178 16.44 105.792 15.36C106.405 14.2667 107.238 13.4133 108.292 12.8C109.358 12.1867 110.538 11.88 111.832 11.88C113.352 11.88 114.678 12.2467 115.812 12.98C116.945 13.7133 117.772 14.7533 118.292 16.1H116.112C115.725 15.26 115.165 14.6133 114.432 14.16C113.712 13.7067 112.845 13.48 111.832 13.48C110.858 13.48 109.985 13.7067 109.212 14.16C108.438 14.6133 107.832 15.26 107.392 16.1C106.952 16.9267 106.732 17.9 106.732 19.02C106.732 20.1267 106.952 21.1 107.392 21.94C107.832 22.7667 108.438 23.4067 109.212 23.86C109.985 24.3133 110.858 24.54 111.832 24.54C112.845 24.54 113.712 24.32 114.432 23.88C115.165 23.4267 115.725 22.78 116.112 21.94H118.292C117.772 23.2733 116.945 24.3067 115.812 25.04C114.678 25.76 113.352 26.12 111.832 26.12C110.538 26.12 109.358 25.82 108.292 25.22C107.238 24.6067 106.405 23.76 105.792 22.68C105.178 21.6 104.872 20.38 104.872 19.02Z" fill="white"/>
<path d="M125.781 26.18C124.754 26.18 123.821 25.9467 122.981 25.48C122.154 25.0133 121.501 24.3533 121.021 23.5C120.554 22.6333 120.321 21.6333 120.321 20.5C120.321 19.38 120.561 18.3933 121.041 17.54C121.534 16.6733 122.201 16.0133 123.041 15.56C123.881 15.0933 124.821 14.86 125.861 14.86C126.901 14.86 127.841 15.0933 128.681 15.56C129.521 16.0133 130.181 16.6667 130.661 17.52C131.154 18.3733 131.401 19.3667 131.401 20.5C131.401 21.6333 131.148 22.6333 130.641 23.5C130.148 24.3533 129.474 25.0133 128.621 25.48C127.768 25.9467 126.821 26.18 125.781 26.18ZM125.781 24.58C126.434 24.58 127.048 24.4267 127.621 24.12C128.194 23.8133 128.654 23.3533 129.001 22.74C129.361 22.1267 129.541 21.38 129.541 20.5C129.541 19.62 129.368 18.8733 129.021 18.26C128.674 17.6467 128.221 17.1933 127.661 16.9C127.101 16.5933 126.494 16.44 125.841 16.44C125.174 16.44 124.561 16.5933 124.001 16.9C123.454 17.1933 123.014 17.6467 122.681 18.26C122.348 18.8733 122.181 19.62 122.181 20.5C122.181 21.3933 122.341 22.1467 122.661 22.76C122.994 23.3733 123.434 23.8333 123.981 24.14C124.528 24.4333 125.128 24.58 125.781 24.58Z" fill="white"/>
<path d="M146.974 14.84C147.827 14.84 148.587 15.02 149.254 15.38C149.921 15.7267 150.447 16.2533 150.834 16.96C151.221 17.6667 151.414 18.5267 151.414 19.54V26H149.614V19.8C149.614 18.7067 149.341 17.8733 148.794 17.3C148.261 16.7133 147.534 16.42 146.614 16.42C145.667 16.42 144.914 16.7267 144.354 17.34C143.794 17.94 143.514 18.8133 143.514 19.96V26H141.714V19.8C141.714 18.7067 141.441 17.8733 140.894 17.3C140.361 16.7133 139.634 16.42 138.714 16.42C137.767 16.42 137.014 16.7267 136.454 17.34C135.894 17.94 135.614 18.8133 135.614 19.96V26H133.794V15.04H135.614V16.62C135.974 16.0467 136.454 15.6067 137.054 15.3C137.667 14.9933 138.341 14.84 139.074 14.84C139.994 14.84 140.807 15.0467 141.514 15.46C142.221 15.8733 142.747 16.48 143.094 17.28C143.401 16.5067 143.907 15.9067 144.614 15.48C145.321 15.0533 146.107 14.84 146.974 14.84Z" fill="white"/>
<path d="M164.399 20.1C164.399 20.4467 164.379 20.8133 164.339 21.2H155.579C155.646 22.28 156.013 23.1267 156.679 23.74C157.359 24.34 158.179 24.64 159.139 24.64C159.926 24.64 160.579 24.46 161.099 24.1C161.633 23.7267 162.006 23.2333 162.219 22.62H164.179C163.886 23.6733 163.299 24.5333 162.419 25.2C161.539 25.8533 160.446 26.18 159.139 26.18C158.099 26.18 157.166 25.9467 156.339 25.48C155.526 25.0133 154.886 24.3533 154.419 23.5C153.953 22.6333 153.719 21.6333 153.719 20.5C153.719 19.3667 153.946 18.3733 154.399 17.52C154.853 16.6667 155.486 16.0133 156.299 15.56C157.126 15.0933 158.073 14.86 159.139 14.86C160.179 14.86 161.099 15.0867 161.899 15.54C162.699 15.9933 163.313 16.62 163.739 17.42C164.179 18.2067 164.399 19.1 164.399 20.1ZM162.519 19.72C162.519 19.0267 162.366 18.4333 162.059 17.94C161.753 17.4333 161.333 17.0533 160.799 16.8C160.279 16.5333 159.699 16.4 159.059 16.4C158.139 16.4 157.353 16.6933 156.699 17.28C156.059 17.8667 155.693 18.68 155.599 19.72H162.519Z" fill="white"/>
<path d="M168.622 16.82C168.942 16.1933 169.395 15.7067 169.982 15.36C170.582 15.0133 171.308 14.84 172.162 14.84V16.72H171.682C169.642 16.72 168.622 17.8267 168.622 20.04V26H166.802V15.04H168.622V16.82Z" fill="white"/>
<path d="M173.583 20.5C173.583 19.3667 173.809 18.38 174.263 17.54C174.716 16.6867 175.343 16.0267 176.143 15.56C176.956 15.0933 177.883 14.86 178.923 14.86C180.269 14.86 181.376 15.1867 182.243 15.84C183.123 16.4933 183.703 17.4 183.983 18.56H182.023C181.836 17.8933 181.469 17.3667 180.923 16.98C180.389 16.5933 179.723 16.4 178.923 16.4C177.883 16.4 177.043 16.76 176.403 17.48C175.763 18.1867 175.443 19.1933 175.443 20.5C175.443 21.82 175.763 22.84 176.403 23.56C177.043 24.28 177.883 24.64 178.923 24.64C179.723 24.64 180.389 24.4533 180.923 24.08C181.456 23.7067 181.823 23.1733 182.023 22.48H183.983C183.689 23.6 183.103 24.5 182.223 25.18C181.343 25.8467 180.243 26.18 178.923 26.18C177.883 26.18 176.956 25.9467 176.143 25.48C175.343 25.0133 174.716 24.3533 174.263 23.5C173.809 22.6467 173.583 21.6467 173.583 20.5Z" fill="white"/>
<path d="M187.351 13.26C187.004 13.26 186.711 13.14 186.471 12.9C186.231 12.66 186.111 12.3667 186.111 12.02C186.111 11.6733 186.231 11.38 186.471 11.14C186.711 10.9 187.004 10.78 187.351 10.78C187.684 10.78 187.964 10.9 188.191 11.14C188.431 11.38 188.551 11.6733 188.551 12.02C188.551 12.3667 188.431 12.66 188.191 12.9C187.964 13.14 187.684 13.26 187.351 13.26ZM188.231 15.04V26H186.411V15.04H188.231Z" fill="white"/>
<path d="M190.653 20.48C190.653 19.36 190.88 18.38 191.333 17.54C191.786 16.6867 192.406 16.0267 193.193 15.56C193.993 15.0933 194.88 14.86 195.853 14.86C196.813 14.86 197.646 15.0667 198.353 15.48C199.06 15.8933 199.586 16.4133 199.933 17.04V15.04H201.773V26H199.933V23.96C199.573 24.6 199.033 25.1333 198.313 25.56C197.606 25.9733 196.78 26.18 195.833 26.18C194.86 26.18 193.98 25.94 193.193 25.46C192.406 24.98 191.786 24.3067 191.333 23.44C190.88 22.5733 190.653 21.5867 190.653 20.48ZM199.933 20.5C199.933 19.6733 199.766 18.9533 199.433 18.34C199.1 17.7267 198.646 17.26 198.073 16.94C197.513 16.6067 196.893 16.44 196.213 16.44C195.533 16.44 194.913 16.6 194.353 16.92C193.793 17.24 193.346 17.7067 193.013 18.32C192.68 18.9333 192.513 19.6533 192.513 20.48C192.513 21.32 192.68 22.0533 193.013 22.68C193.346 23.2933 193.793 23.7667 194.353 24.1C194.913 24.42 195.533 24.58 196.213 24.58C196.893 24.58 197.513 24.42 198.073 24.1C198.646 23.7667 199.1 23.2933 199.433 22.68C199.766 22.0533 199.933 21.3267 199.933 20.5Z" fill="white"/>
<path d="M206.669 11.2V26H204.849V11.2H206.669Z" fill="white"/>
<path d="M219.523 26.14C218.603 26.14 217.776 25.98 217.042 25.66C216.322 25.3267 215.756 24.8733 215.342 24.3C214.929 23.7133 214.716 23.04 214.702 22.28H216.643C216.709 22.9333 216.976 23.4867 217.443 23.94C217.923 24.38 218.616 24.6 219.523 24.6C220.389 24.6 221.069 24.3867 221.562 23.96C222.069 23.52 222.322 22.96 222.322 22.28C222.322 21.7467 222.176 21.3133 221.883 20.98C221.589 20.6467 221.223 20.3933 220.783 20.22C220.343 20.0467 219.749 19.86 219.003 19.66C218.083 19.42 217.343 19.18 216.783 18.94C216.236 18.7 215.763 18.3267 215.363 17.82C214.976 17.3 214.783 16.6067 214.783 15.74C214.783 14.98 214.976 14.3067 215.363 13.72C215.749 13.1333 216.289 12.68 216.982 12.36C217.689 12.04 218.496 11.88 219.402 11.88C220.709 11.88 221.776 12.2067 222.602 12.86C223.442 13.5133 223.916 14.38 224.023 15.46H222.023C221.956 14.9267 221.676 14.46 221.182 14.06C220.689 13.6467 220.036 13.44 219.223 13.44C218.463 13.44 217.843 13.64 217.363 14.04C216.883 14.4267 216.643 14.9733 216.643 15.68C216.643 16.1867 216.783 16.6 217.062 16.92C217.356 17.24 217.709 17.4867 218.122 17.66C218.549 17.82 219.142 18.0067 219.902 18.22C220.822 18.4733 221.562 18.7267 222.122 18.98C222.682 19.22 223.163 19.6 223.562 20.12C223.963 20.6267 224.163 21.32 224.163 22.2C224.163 22.88 223.982 23.52 223.622 24.12C223.262 24.72 222.729 25.2067 222.023 25.58C221.316 25.9533 220.483 26.14 219.523 26.14Z" fill="white"/>
<path d="M236.561 15.04V26H234.741V24.38C234.394 24.94 233.907 25.38 233.281 25.7C232.667 26.0067 231.987 26.16 231.241 26.16C230.387 26.16 229.621 25.9867 228.941 25.64C228.261 25.28 227.721 24.7467 227.321 24.04C226.934 23.3333 226.741 22.4733 226.741 21.46V15.04H228.541V21.22C228.541 22.3 228.814 23.1333 229.361 23.72C229.907 24.2933 230.654 24.58 231.601 24.58C232.574 24.58 233.341 24.28 233.901 23.68C234.461 23.08 234.741 22.2067 234.741 21.06V15.04H236.561Z" fill="white"/>
<path d="M241.454 11.2V26H239.634V11.2H241.454Z" fill="white"/>
<path d="M261.068 28.64L258.288 25.86C257.608 26.0467 256.914 26.14 256.208 26.14C254.914 26.14 253.734 25.84 252.668 25.24C251.601 24.6267 250.754 23.78 250.128 22.7C249.514 21.6067 249.208 20.38 249.208 19.02C249.208 17.66 249.514 16.44 250.128 15.36C250.754 14.2667 251.601 13.42 252.668 12.82C253.734 12.2067 254.914 11.9 256.208 11.9C257.514 11.9 258.701 12.2067 259.768 12.82C260.834 13.42 261.674 14.26 262.288 15.34C262.901 16.42 263.208 17.6467 263.208 19.02C263.208 20.3533 262.914 21.5533 262.328 22.62C261.741 23.6867 260.934 24.5267 259.908 25.14L263.428 28.64H261.068ZM251.068 19.02C251.068 20.1267 251.288 21.1 251.728 21.94C252.181 22.78 252.794 23.4267 253.568 23.88C254.354 24.3333 255.234 24.56 256.208 24.56C257.181 24.56 258.054 24.3333 258.828 23.88C259.614 23.4267 260.228 22.78 260.668 21.94C261.121 21.1 261.348 20.1267 261.348 19.02C261.348 17.9 261.121 16.9267 260.668 16.1C260.228 15.26 259.621 14.6133 258.848 14.16C258.074 13.7067 257.194 13.48 256.208 13.48C255.221 13.48 254.341 13.7067 253.568 14.16C252.794 14.6133 252.181 15.26 251.728 16.1C251.288 16.9267 251.068 17.9 251.068 19.02Z" fill="white"/>
<path d="M266.229 26.12C265.883 26.12 265.589 26 265.349 25.76C265.109 25.52 264.989 25.2267 264.989 24.88C264.989 24.5333 265.109 24.24 265.349 24C265.589 23.76 265.883 23.64 266.229 23.64C266.563 23.64 266.843 23.76 267.069 24C267.309 24.24 267.429 24.5333 267.429 24.88C267.429 25.2267 267.309 25.52 267.069 25.76C266.843 26 266.563 26.12 266.229 26.12Z" fill="white"/>
<path d="M282.941 14.98C282.647 13.5 281.734 12.76 280.201 12.76C279.014 12.76 278.127 13.22 277.541 14.14C276.954 15.0467 276.667 16.5467 276.681 18.64C276.987 17.9467 277.494 17.4067 278.201 17.02C278.921 16.62 279.721 16.42 280.601 16.42C281.974 16.42 283.067 16.8467 283.881 17.7C284.707 18.5533 285.121 19.7333 285.121 21.24C285.121 22.1467 284.941 22.96 284.581 23.68C284.234 24.4 283.701 24.9733 282.981 25.4C282.274 25.8267 281.414 26.04 280.401 26.04C279.027 26.04 277.954 25.7333 277.181 25.12C276.407 24.5067 275.867 23.66 275.561 22.58C275.254 21.5 275.101 20.1667 275.101 18.58C275.101 13.6867 276.807 11.24 280.221 11.24C281.527 11.24 282.554 11.5933 283.301 12.3C284.047 13.0067 284.487 13.9 284.621 14.98H282.941ZM280.221 17.96C279.647 17.96 279.107 18.08 278.601 18.32C278.094 18.5467 277.681 18.9 277.361 19.38C277.054 19.8467 276.901 20.42 276.901 21.1C276.901 22.1133 277.194 22.94 277.781 23.58C278.367 24.2067 279.207 24.52 280.301 24.52C281.234 24.52 281.974 24.2333 282.521 23.66C283.081 23.0733 283.361 22.2867 283.361 21.3C283.361 20.26 283.094 19.4467 282.561 18.86C282.027 18.26 281.247 17.96 280.221 17.96Z" fill="white"/>
<path d="M31.6667 15.5V6.66667H26.6667V11L20 5L3.33333 20H8.33333V33.3333H16.6667V23.3333H23.3333V33.3333H31.6667V20H36.6667L31.6667 15.5ZM16.6667 16.6667C16.6667 14.8333 18.1667 13.3333 20 13.3333C21.8333 13.3333 23.3333 14.8333 23.3333 16.6667H16.6667Z" fill="white"/>
</svg>
