<svg width="208" height="40" viewBox="0 0 208 40" fill="none" xmlns="http://www.w3.org/2000/svg">
<path d="M53.22 30.72C51.94 29.4667 50.94 27.8733 50.22 25.94C49.5133 24.0067 49.16 21.92 49.16 19.68C49.16 17.3867 49.5333 15.2467 50.28 13.26C51.04 11.26 52.12 9.61333 53.52 8.32H55.42V8.5C53.9267 9.9 52.8 11.5867 52.04 13.56C51.2933 15.52 50.92 17.56 50.92 19.68C50.92 21.7467 51.2733 23.72 51.98 25.6C52.7 27.48 53.7467 29.1267 55.12 30.54V30.72H53.22Z" fill="white"/>
<path d="M65.382 15.98C65.0887 14.5 64.1754 13.76 62.642 13.76C61.4554 13.76 60.5687 14.22 59.982 15.14C59.3954 16.0467 59.1087 17.5467 59.122 19.64C59.4287 18.9467 59.9354 18.4067 60.642 18.02C61.362 17.62 62.162 17.42 63.042 17.42C64.4154 17.42 65.5087 17.8467 66.322 18.7C67.1487 19.5533 67.562 20.7333 67.562 22.24C67.562 23.1467 67.382 23.96 67.022 24.68C66.6754 25.4 66.142 25.9733 65.422 26.4C64.7154 26.8267 63.8554 27.04 62.842 27.04C61.4687 27.04 60.3954 26.7333 59.622 26.12C58.8487 25.5067 58.3087 24.66 58.002 23.58C57.6954 22.5 57.542 21.1667 57.542 19.58C57.542 14.6867 59.2487 12.24 62.662 12.24C63.9687 12.24 64.9954 12.5933 65.742 13.3C66.4887 14.0067 66.9287 14.9 67.062 15.98H65.382ZM62.662 18.96C62.0887 18.96 61.5487 19.08 61.042 19.32C60.5354 19.5467 60.122 19.9 59.802 20.38C59.4954 20.8467 59.342 21.42 59.342 22.1C59.342 23.1133 59.6354 23.94 60.222 24.58C60.8087 25.2067 61.6487 25.52 62.742 25.52C63.6754 25.52 64.4154 25.2333 64.962 24.66C65.522 24.0733 65.802 23.2867 65.802 22.3C65.802 21.26 65.5354 20.4467 65.002 19.86C64.4687 19.26 63.6887 18.96 62.662 18.96Z" fill="white"/>
<path d="M69.5373 14.2V12.54H73.2973V27H71.4573V14.2H69.5373Z" fill="white"/>
<path d="M76.1436 30.72V30.54C77.5169 29.1267 78.5569 27.48 79.2636 25.6C79.9836 23.72 80.3436 21.7467 80.3436 19.68C80.3436 17.56 79.9636 15.52 79.2036 13.56C78.4569 11.5867 77.3369 9.9 75.8436 8.5V8.32H77.7436C79.1436 9.61333 80.2169 11.26 80.9636 13.26C81.7236 15.2467 82.1036 17.3867 82.1036 19.68C82.1036 21.92 81.7436 24.0067 81.0236 25.94C80.3169 27.8733 79.3236 29.4667 78.0436 30.72H76.1436Z" fill="white"/>
<path d="M93.1777 23.12C93.311 23.88 93.6177 24.4667 94.0977 24.88C94.591 25.2933 95.251 25.5 96.0777 25.5C97.1843 25.5 97.9977 25.0667 98.5177 24.2C99.051 23.3333 99.3043 21.8733 99.2777 19.82C98.9977 20.42 98.531 20.8933 97.8777 21.24C97.2243 21.5733 96.4977 21.74 95.6977 21.74C94.8043 21.74 94.0043 21.56 93.2977 21.2C92.6043 20.8267 92.0577 20.2867 91.6577 19.58C91.2577 18.8733 91.0577 18.02 91.0577 17.02C91.0577 15.5933 91.471 14.4467 92.2977 13.58C93.1243 12.7 94.2977 12.26 95.8177 12.26C97.6843 12.26 98.991 12.8667 99.7377 14.08C100.498 15.2933 100.878 17.1 100.878 19.5C100.878 21.18 100.724 22.5667 100.418 23.66C100.124 24.7533 99.6177 25.5867 98.8977 26.16C98.191 26.7333 97.2177 27.02 95.9777 27.02C94.6177 27.02 93.5577 26.6533 92.7977 25.92C92.0377 25.1867 91.6043 24.2533 91.4977 23.12H93.1777ZM95.9977 20.2C96.891 20.2 97.6243 19.9267 98.1977 19.38C98.771 18.82 99.0577 18.0667 99.0577 17.12C99.0577 16.12 98.7777 15.3133 98.2177 14.7C97.6577 14.0867 96.871 13.78 95.8577 13.78C94.9243 13.78 94.1777 14.0733 93.6177 14.66C93.071 15.2467 92.7977 16.02 92.7977 16.98C92.7977 17.9533 93.071 18.7333 93.6177 19.32C94.1643 19.9067 94.9577 20.2 95.9977 20.2Z" fill="white"/>
<path d="M105.775 23.12C105.909 23.88 106.215 24.4667 106.695 24.88C107.189 25.2933 107.849 25.5 108.675 25.5C109.782 25.5 110.595 25.0667 111.115 24.2C111.649 23.3333 111.902 21.8733 111.875 19.82C111.595 20.42 111.129 20.8933 110.475 21.24C109.822 21.5733 109.095 21.74 108.295 21.74C107.402 21.74 106.602 21.56 105.895 21.2C105.202 20.8267 104.655 20.2867 104.255 19.58C103.855 18.8733 103.655 18.02 103.655 17.02C103.655 15.5933 104.069 14.4467 104.895 13.58C105.722 12.7 106.895 12.26 108.415 12.26C110.282 12.26 111.589 12.8667 112.335 14.08C113.095 15.2933 113.475 17.1 113.475 19.5C113.475 21.18 113.322 22.5667 113.015 23.66C112.722 24.7533 112.215 25.5867 111.495 26.16C110.789 26.7333 109.815 27.02 108.575 27.02C107.215 27.02 106.155 26.6533 105.395 25.92C104.635 25.1867 104.202 24.2533 104.095 23.12H105.775ZM108.595 20.2C109.489 20.2 110.222 19.9267 110.795 19.38C111.369 18.82 111.655 18.0667 111.655 17.12C111.655 16.12 111.375 15.3133 110.815 14.7C110.255 14.0867 109.469 13.78 108.455 13.78C107.522 13.78 106.775 14.0733 106.215 14.66C105.669 15.2467 105.395 16.02 105.395 16.98C105.395 17.9533 105.669 18.7333 106.215 19.32C106.762 19.9067 107.555 20.2 108.595 20.2Z" fill="white"/>
<path d="M118.373 23.12C118.506 23.88 118.813 24.4667 119.293 24.88C119.786 25.2933 120.446 25.5 121.273 25.5C122.38 25.5 123.193 25.0667 123.713 24.2C124.246 23.3333 124.5 21.8733 124.473 19.82C124.193 20.42 123.726 20.8933 123.073 21.24C122.42 21.5733 121.693 21.74 120.893 21.74C120 21.74 119.2 21.56 118.493 21.2C117.8 20.8267 117.253 20.2867 116.853 19.58C116.453 18.8733 116.253 18.02 116.253 17.02C116.253 15.5933 116.666 14.4467 117.493 13.58C118.32 12.7 119.493 12.26 121.013 12.26C122.88 12.26 124.186 12.8667 124.933 14.08C125.693 15.2933 126.073 17.1 126.073 19.5C126.073 21.18 125.92 22.5667 125.613 23.66C125.32 24.7533 124.813 25.5867 124.093 26.16C123.386 26.7333 122.413 27.02 121.173 27.02C119.813 27.02 118.753 26.6533 117.993 25.92C117.233 25.1867 116.8 24.2533 116.693 23.12H118.373ZM121.193 20.2C122.086 20.2 122.82 19.9267 123.393 19.38C123.966 18.82 124.253 18.0667 124.253 17.12C124.253 16.12 123.973 15.3133 123.413 14.7C122.853 14.0867 122.066 13.78 121.053 13.78C120.12 13.78 119.373 14.0733 118.813 14.66C118.266 15.2467 117.993 16.02 117.993 16.98C117.993 17.9533 118.266 18.7333 118.813 19.32C119.36 19.9067 120.153 20.2 121.193 20.2Z" fill="white"/>
<path d="M128.591 16.18C128.684 14.9533 129.157 13.9933 130.011 13.3C130.864 12.6067 131.971 12.26 133.331 12.26C134.237 12.26 135.017 12.4267 135.671 12.76C136.337 13.08 136.837 13.52 137.171 14.08C137.517 14.64 137.691 15.2733 137.691 15.98C137.691 16.8067 137.451 17.52 136.971 18.12C136.504 18.72 135.891 19.1067 135.131 19.28V19.38C135.997 19.5933 136.684 20.0133 137.191 20.64C137.697 21.2667 137.951 22.0867 137.951 23.1C137.951 23.86 137.777 24.5467 137.431 25.16C137.084 25.76 136.564 26.2333 135.871 26.58C135.177 26.9267 134.344 27.1 133.371 27.1C131.957 27.1 130.797 26.7333 129.891 26C128.984 25.2533 128.477 24.2 128.371 22.84H130.131C130.224 23.64 130.551 24.2933 131.111 24.8C131.671 25.3067 132.417 25.56 133.351 25.56C134.284 25.56 134.991 25.32 135.471 24.84C135.964 24.3467 136.211 23.7133 136.211 22.94C136.211 21.94 135.877 21.22 135.211 20.78C134.544 20.34 133.537 20.12 132.191 20.12H131.731V18.6H132.211C133.437 18.5867 134.364 18.3867 134.991 18C135.617 17.6 135.931 16.9867 135.931 16.16C135.931 15.4533 135.697 14.8867 135.231 14.46C134.777 14.0333 134.124 13.82 133.271 13.82C132.444 13.82 131.777 14.0333 131.271 14.46C130.764 14.8867 130.464 15.46 130.371 16.18H128.591Z" fill="white"/>
<path d="M140.368 16.18C140.461 14.9533 140.935 13.9933 141.788 13.3C142.641 12.6067 143.748 12.26 145.108 12.26C146.015 12.26 146.795 12.4267 147.448 12.76C148.115 13.08 148.615 13.52 148.948 14.08C149.295 14.64 149.468 15.2733 149.468 15.98C149.468 16.8067 149.228 17.52 148.748 18.12C148.281 18.72 147.668 19.1067 146.908 19.28V19.38C147.775 19.5933 148.461 20.0133 148.968 20.64C149.475 21.2667 149.728 22.0867 149.728 23.1C149.728 23.86 149.555 24.5467 149.208 25.16C148.861 25.76 148.341 26.2333 147.648 26.58C146.955 26.9267 146.121 27.1 145.148 27.1C143.735 27.1 142.575 26.7333 141.668 26C140.761 25.2533 140.255 24.2 140.148 22.84H141.908C142.001 23.64 142.328 24.2933 142.888 24.8C143.448 25.3067 144.195 25.56 145.128 25.56C146.061 25.56 146.768 25.32 147.248 24.84C147.741 24.3467 147.988 23.7133 147.988 22.94C147.988 21.94 147.655 21.22 146.988 20.78C146.321 20.34 145.315 20.12 143.968 20.12H143.508V18.6H143.988C145.215 18.5867 146.141 18.3867 146.768 18C147.395 17.6 147.708 16.9867 147.708 16.16C147.708 15.4533 147.475 14.8867 147.008 14.46C146.555 14.0333 145.901 13.82 145.048 13.82C144.221 13.82 143.555 14.0333 143.048 14.46C142.541 14.8867 142.241 15.46 142.148 16.18H140.368Z" fill="white"/>
<path d="M160.085 18.9V20.44H152.105V18.9H160.085Z" fill="white"/>
<path d="M163.161 16.18C163.254 14.9533 163.728 13.9933 164.581 13.3C165.434 12.6067 166.541 12.26 167.901 12.26C168.808 12.26 169.588 12.4267 170.241 12.76C170.908 13.08 171.408 13.52 171.741 14.08C172.088 14.64 172.261 15.2733 172.261 15.98C172.261 16.8067 172.021 17.52 171.541 18.12C171.074 18.72 170.461 19.1067 169.701 19.28V19.38C170.568 19.5933 171.254 20.0133 171.761 20.64C172.268 21.2667 172.521 22.0867 172.521 23.1C172.521 23.86 172.348 24.5467 172.001 25.16C171.654 25.76 171.134 26.2333 170.441 26.58C169.748 26.9267 168.914 27.1 167.941 27.1C166.528 27.1 165.368 26.7333 164.461 26C163.554 25.2533 163.048 24.2 162.941 22.84H164.701C164.794 23.64 165.121 24.2933 165.681 24.8C166.241 25.3067 166.988 25.56 167.921 25.56C168.854 25.56 169.561 25.32 170.041 24.84C170.534 24.3467 170.781 23.7133 170.781 22.94C170.781 21.94 170.448 21.22 169.781 20.78C169.114 20.34 168.108 20.12 166.761 20.12H166.301V18.6H166.781C168.008 18.5867 168.934 18.3867 169.561 18C170.188 17.6 170.501 16.9867 170.501 16.16C170.501 15.4533 170.268 14.8867 169.801 14.46C169.348 14.0333 168.694 13.82 167.841 13.82C167.014 13.82 166.348 14.0333 165.841 14.46C165.334 14.8867 165.034 15.46 164.941 16.18H163.161Z" fill="white"/>
<path d="M174.938 16.18C175.032 14.9533 175.505 13.9933 176.358 13.3C177.212 12.6067 178.318 12.26 179.678 12.26C180.585 12.26 181.365 12.4267 182.018 12.76C182.685 13.08 183.185 13.52 183.518 14.08C183.865 14.64 184.038 15.2733 184.038 15.98C184.038 16.8067 183.798 17.52 183.318 18.12C182.852 18.72 182.238 19.1067 181.478 19.28V19.38C182.345 19.5933 183.032 20.0133 183.538 20.64C184.045 21.2667 184.298 22.0867 184.298 23.1C184.298 23.86 184.125 24.5467 183.778 25.16C183.432 25.76 182.912 26.2333 182.218 26.58C181.525 26.9267 180.692 27.1 179.718 27.1C178.305 27.1 177.145 26.7333 176.238 26C175.332 25.2533 174.825 24.2 174.718 22.84H176.478C176.572 23.64 176.898 24.2933 177.458 24.8C178.018 25.3067 178.765 25.56 179.698 25.56C180.632 25.56 181.338 25.32 181.818 24.84C182.312 24.3467 182.558 23.7133 182.558 22.94C182.558 21.94 182.225 21.22 181.558 20.78C180.892 20.34 179.885 20.12 178.538 20.12H178.078V18.6H178.558C179.785 18.5867 180.712 18.3867 181.338 18C181.965 17.6 182.278 16.9867 182.278 16.16C182.278 15.4533 182.045 14.8867 181.578 14.46C181.125 14.0333 180.472 13.82 179.618 13.82C178.792 13.82 178.125 14.0333 177.618 14.46C177.112 14.8867 176.812 15.46 176.718 16.18H174.938Z" fill="white"/>
<path d="M186.536 25.54C188.229 24.18 189.556 23.0667 190.516 22.2C191.476 21.32 192.282 20.4067 192.936 19.46C193.602 18.5 193.936 17.56 193.936 16.64C193.936 15.7733 193.722 15.0933 193.296 14.6C192.882 14.0933 192.209 13.84 191.276 13.84C190.369 13.84 189.662 14.1267 189.156 14.7C188.662 15.26 188.396 16.0133 188.356 16.96H186.596C186.649 15.4667 187.102 14.3133 187.956 13.5C188.809 12.6867 189.909 12.28 191.256 12.28C192.629 12.28 193.716 12.66 194.516 13.42C195.329 14.18 195.736 15.2267 195.736 16.56C195.736 17.6667 195.402 18.7467 194.736 19.8C194.082 20.84 193.336 21.76 192.496 22.56C191.656 23.3467 190.582 24.2667 189.276 25.32H196.156V26.84H186.536V25.54Z" fill="white"/>
<path d="M198.04 25.54C199.733 24.18 201.06 23.0667 202.02 22.2C202.98 21.32 203.786 20.4067 204.44 19.46C205.106 18.5 205.44 17.56 205.44 16.64C205.44 15.7733 205.226 15.0933 204.8 14.6C204.386 14.0933 203.713 13.84 202.78 13.84C201.873 13.84 201.166 14.1267 200.66 14.7C200.166 15.26 199.9 16.0133 199.86 16.96H198.1C198.153 15.4667 198.606 14.3133 199.46 13.5C200.313 12.6867 201.413 12.28 202.76 12.28C204.133 12.28 205.22 12.66 206.02 13.42C206.833 14.18 207.24 15.2267 207.24 16.56C207.24 17.6667 206.906 18.7467 206.24 19.8C205.586 20.84 204.84 21.76 204 22.56C203.16 23.3467 202.086 24.2667 200.78 25.32H207.66V26.84H198.04V25.54Z" fill="white"/>
<path d="M11.0333 17.9833C13.4333 22.7 17.3 26.55 22.0167 28.9667L25.6833 25.3C26.1333 24.85 26.8 24.7 27.3833 24.9C29.25 25.5167 31.2667 25.85 33.3333 25.85C34.25 25.85 35 26.6 35 27.5167V33.3333C35 34.25 34.25 35 33.3333 35C17.6833 35 5 22.3167 5 6.66667C5 5.75 5.75 5 6.66667 5H12.5C13.4167 5 14.1667 5.75 14.1667 6.66667C14.1667 8.75 14.5 10.75 15.1167 12.6167C15.3 13.2 15.1667 13.85 14.7 14.3167L11.0333 17.9833Z" fill="white"/>
</svg>
